<svg width="32" height="32" viewBox="0 0 32 32" fill="none" xmlns="http://www.w3.org/2000/svg">
<path d="M32.0002 16.3665C32.0002 15.197 31.8934 14.078 31.695 13.002H16.3408V19.1669L25.1836 19.1688C24.8249 21.22 23.6707 22.9686 21.9021 24.1343V28.1341H27.1658C30.2393 25.3487 32.0002 21.2312 32.0002 16.3665Z" fill="#4285F4"/>
<path d="M21.9037 24.1336C20.4385 25.1013 18.5517 25.6673 16.3443 25.6673C12.0804 25.6673 8.46312 22.8539 7.1677 19.0615H1.73804V23.1864C4.42807 28.4135 9.95694 32.0004 16.3443 32.0004C20.759 32.0004 24.4679 30.5787 27.1674 28.1314L21.9037 24.1336Z" fill="#34A853"/>
<path d="M6.65641 16.0023C6.65641 14.9374 6.83765 13.9081 7.1677 12.9404V8.81543H1.73803C0.625764 10.9769 0 13.4167 0 16.0023C0 18.5879 0.627672 21.0277 1.73803 23.1892L7.1677 19.0643C6.83765 18.0965 6.65641 17.0672 6.65641 16.0023Z" fill="#FABB05"/>
<path d="M16.3443 6.33311C18.7539 6.33311 20.9117 7.14577 22.6154 8.73372L27.28 4.16977C24.4469 1.58608 20.7533 0 16.3443 0C9.95885 0 4.42807 3.58689 1.73804 8.81405L7.1677 12.939C8.46312 9.14659 12.0804 6.33311 16.3443 6.33311Z" fill="#E94235"/>
</svg>
